<svg width="132" height="189" viewBox="0 0 132 189" fill="none" xmlns="http://www.w3.org/2000/svg">
<g clip-path="url(#clip0_1088_410)">
<path d="M115.196 0C115.637 0.392581 117.011 1.47218 117.011 2.01198V27.5298H128.592C129.819 27.5298 131.242 29.738 130.997 31.0139V184.611C130.997 185.838 130.653 187.31 129.427 187.801L39.7218 188.096C35.4524 187.605 37.0718 182.599 38.9857 182.599H125.501V33.075H98.5108C98.5108 33.075 97.1368 31.7991 97.0386 31.6028C96.4007 30.2288 97.5294 27.5788 98.8543 27.5788H111.515V6.23223L59.1055 19.4328C56.4065 19.8254 54.6398 16.7338 56.6028 14.6727L113.38 0H115.196Z" fill="white"/>
<path d="M29.4153 182.55C32.1143 183.139 32.4578 187.605 28.6792 188.046C20.8766 188.979 11.3075 187.359 3.35769 188.046C1.542 187.752 1.0022 186.28 0.953125 184.611V30.3269L1.78736 28.364L47.8175 16.5375C50.5656 16.6847 51.547 19.7763 49.5841 21.592L27.4033 27.5298H88.9404C89.9709 27.5298 91.2468 29.2964 91.345 30.3269C91.394 31.3083 90.1672 33.075 89.333 33.075H6.49834V182.599H29.4643L29.4153 182.55Z" fill="white"/>
<path d="M78.4881 85.2393C79.1751 85.3865 79.3714 84.8467 79.764 84.5032C85.0148 80.1848 89.5785 73.8544 94.8784 69.536C97.7246 68.849 99.6384 70.9591 98.2644 73.6581L82.9047 89.3123C87.7138 89.803 92.6701 85.9263 96.1543 82.8838C97.4302 81.7551 101.062 77.4858 102.043 76.9951C104.448 75.9155 106.558 77.6821 106.018 80.2339C105.625 82.0005 97.0867 89.4104 95.1728 90.7354C90.1183 94.1214 84.4259 96.4278 78.439 93.7779L70.8328 101.237L89.5785 119.983C91.4433 122.633 88.4989 125.479 85.7018 123.859L67.0051 105.114L48.6519 123.467C46.4927 125.233 43.5974 123.958 43.7447 121.16L63.1284 101.237L53.9518 92.0604C41.0457 98.3907 21.711 81.019 31.1821 68.211C41.0947 54.7651 60.2822 69.1434 59.1044 83.6689C58.9572 85.1902 57.7304 87.6438 58.172 88.6253C58.4174 89.1651 65.582 96.2806 66.2199 96.7223C66.4653 96.8695 66.6616 97.1149 66.956 97.0658L74.4151 89.8521C71.667 84.4541 73.6299 79.1542 76.5252 74.3451C77.9483 71.9896 85.3092 62.9603 87.6156 62.2733C90.3146 61.4881 92.1794 63.5001 91.0998 66.15C90.6581 67.1805 87.8119 69.1434 86.7814 70.2721C83.0028 74.3451 78.6353 79.5468 78.5372 85.3374L78.4881 85.2393ZM40.9475 68.4073C37.3161 68.6527 34.1755 71.8915 34.0773 75.5229C33.8811 82.4421 44.5789 90.2447 50.9093 87.2022C58.172 83.718 49.7806 67.7694 40.9475 68.4073Z" fill="white"/>
<path d="M96.0082 140.053C97.5294 141.624 96.6952 144.519 94.4869 144.764H37.5135C33.9312 143.881 34.7654 139.416 38.2496 139.219H93.3582C94.0943 139.219 95.5174 139.563 96.0082 140.053Z" fill="white"/>
<path d="M47.1323 153.99L84.1822 153.892C87.5682 154.284 87.8626 158.995 84.1822 159.437C72.9445 160.713 59.3023 158.456 47.8193 159.437C44.6296 159.437 44.188 154.677 47.1814 153.99H47.1323Z" fill="white"/>
</g>
<defs>
<clipPath id="clip0_1088_410">
<rect width="130.092" height="188.39" fill="white" transform="translate(0.953125)"/>
</clipPath>
</defs>
</svg>
