<svg width="154" height="188" viewBox="0 0 154 188" fill="none" xmlns="http://www.w3.org/2000/svg">
<g clip-path="url(#clip0_1095_497)">
<path d="M142.755 0C147.126 1.22651 151.496 4.17015 153.068 8.63466C154.099 11.5783 154.197 20.8017 153.804 24.0887C153.706 25.0699 152.724 26.8361 151.791 26.8361H132.885V175.735C132.885 181.524 126.402 187.902 120.559 188.049H11.7372C6.33542 187.215 0.982744 182.701 0.19703 177.109C-0.0976132 174.803 -0.195828 167.493 0.54078 165.53C1.17917 163.813 4.32203 161.213 6.13899 161.213H21.0185V148.163C21.0185 147.574 22.7863 145.955 23.4738 145.857C24.3086 145.71 26.5185 146.838 26.5185 147.427V161.213H77.4426C77.4426 161.213 78.9158 161.949 79.014 162.047C80.6836 163.764 79.5542 166.659 77.0988 166.708H6.63007C6.28632 166.855 5.99167 167.149 5.79524 167.444C5.35328 168.376 5.54971 175.588 5.84435 176.912C6.33542 178.924 9.57649 182.505 11.639 182.505H108.478C104.795 178.286 106.465 173.086 105.925 168.327C105.777 167.002 105.139 166.855 103.911 166.708C99.5899 166.217 92.8131 167.542 88.9336 166.659C86.2818 166.07 86.6747 161.704 89.6211 161.262C92.5676 160.82 101.112 160.968 104.304 161.262C116.483 162.292 107.643 175.735 114.42 180.886C120.068 185.204 127.483 180.788 127.286 173.969V11.9217C127.335 9.56681 128.514 7.55532 129.496 5.49478H61.2863C59.1747 5.49478 58.5854 0.784969 61.0899 0H142.706H142.755ZM148.255 21.2923V11.5783C148.255 11.333 147.224 9.22338 146.929 8.8309C143.835 4.36639 137.206 4.36639 134.112 8.8309C133.867 9.22338 132.786 11.333 132.786 11.5783V21.2923H148.206H148.255Z" fill="white"/>
<path d="M50.1392 0C53.1839 1.8643 52.5455 5.20042 48.8625 5.54384C41.3982 6.23069 28.041 2.20772 26.7151 12.8048C26.3714 54.2119 26.9116 95.6681 26.4696 137.026C24.6035 139.97 20.9205 138.449 21.1169 135.015V13.0501C21.5589 8.24217 23.7196 4.26827 27.8446 1.76618L32.5098 0L50.1392 0Z" fill="white"/>
<path d="M67.3253 83.452C82.0084 84.0898 97.9191 82.2746 112.455 83.3539C115.205 83.5502 117.562 84.2861 118.053 87.3278C118.397 89.2902 118.397 95.8153 117.955 97.7287C117.415 100.28 115.598 101.114 113.142 101.359L66.6378 101.212C64.8209 100.77 63.3477 99.4458 62.8566 97.6305C62.3655 95.7172 62.3655 88.9959 62.8566 87.1316C63.3968 85.022 65.1646 83.7464 67.2762 83.5011L67.3253 83.452ZM112.602 88.8487H68.6512L68.111 89.3884V95.2756L68.6512 95.8153H112.602V88.8487Z" fill="white"/>
<path d="M66.5893 60.2954H114.567C116.138 60.737 117.71 62.1597 118.054 63.7787C118.397 65.3977 118.348 73.0021 117.955 74.572C117.612 76.0438 115.844 77.761 114.272 77.8591L65.8036 77.761C64.183 77.1722 62.9553 75.5532 62.7098 73.8852C62.3661 71.9228 62.3661 65.0543 62.9553 63.2881C63.4955 61.6691 64.8705 60.5898 66.5402 60.2954H66.5893ZM112.603 65.7411H68.1116V72.3643H112.603V65.7411Z" fill="white"/>
<path d="M68.1607 42.5845V49.2077H112.652V42.5845H94.433C92.567 42.5845 91.2411 37.9728 94.1384 37.1388C100.473 37.4332 107.692 36.452 113.929 37.0407C116.531 37.286 117.906 39.1012 118.152 41.6524C118.348 43.6148 118.397 49.3549 118.054 51.1211C117.661 53.0344 115.549 54.8497 113.536 54.7025C98.7054 53.5741 81.8125 56.1252 67.1786 54.7025C65.558 54.5553 64.0848 53.8685 63.25 52.3476C62.2188 50.3852 62.2188 41.309 63.25 39.3465C63.9375 38.071 65.3616 37.1879 66.7857 37.0407C71.7946 36.452 78.0804 37.4332 83.2366 37.1388C85.8884 38.1691 85.1518 42.5845 82.5982 42.5845H68.0625H68.1607Z" fill="white"/>
<path d="M42.8699 119.462C42.4771 119.855 42.0351 120.787 41.986 121.376C41.7405 125.104 47.5842 125.644 50.0887 126.871C55.9324 129.814 56.6199 137.86 51.7583 142.079C50.9726 142.766 48.4191 143.797 48.3208 143.993C47.8298 144.827 48.9592 147.819 46.7003 148.801C43.3119 150.273 42.2316 147.133 42.7717 144.287C39.8253 144.876 32.5574 140.313 37.0262 137.664C39.1869 136.388 40.1199 138.056 41.6423 138.596C44.0976 139.479 48.1244 139.381 49.0574 136.486C50.9726 130.894 44.0485 131.286 40.7583 129.176C36.1423 126.233 34.9146 119.708 38.8432 115.636C39.7271 114.704 42.428 113.624 42.5262 113.477C43.2628 112.398 41.6914 108.669 45.178 108.375C48.6646 108.08 47.7807 112.447 48.3699 113.477C49.0083 114.556 55.0976 115.734 52.6423 119.561C50.1869 123.387 46.4548 116.126 42.8208 119.462H42.8699Z" fill="white"/>
<path d="M64.7215 118.727L115.007 118.628C118.739 118.677 119.329 123.24 115.744 124.172H64.6233C61.1858 123.878 61.5295 119.168 64.7215 118.727Z" fill="white"/>
<path d="M53.6743 18.4468L100.817 18.5449C103.567 20.3601 102.34 23.7944 99.1476 23.8434H54.6565C51.5136 23.5491 50.3842 19.5752 53.6252 18.3977L53.6743 18.4468Z" fill="white"/>
<path d="M40.1221 83.452C42.3319 83.1086 49.256 83.1086 51.1221 83.9917C52.3989 84.6295 53.2828 86.1504 53.4301 87.5731C53.6756 89.6827 53.6756 95.0303 53.4301 97.1399C53.1355 99.7401 51.3676 101.114 48.814 101.359C46.6042 101.604 39.9256 101.604 38.0596 100.721C36.7828 100.084 35.8989 98.5627 35.7515 97.1399C35.506 95.1284 35.506 89.2902 35.8498 87.3278C36.2426 85.022 37.8631 83.7955 40.073 83.5011L40.1221 83.452ZM47.9301 88.8487H41.3006V95.8153H47.9301V88.8487Z" fill="white"/>
<path d="M38.9894 37.1879C40.5608 36.8445 47.7796 36.8935 49.5965 37.0898C51.4135 37.286 53.1323 38.7578 53.4269 40.6221C53.7215 42.4864 53.6724 48.9624 53.4269 50.8758C53.1814 52.9854 51.2171 54.5063 49.2037 54.7025C47.1903 54.8987 42.034 54.9478 40.0206 54.7025C37.8108 54.4572 36.043 52.691 35.7974 50.4833C35.5519 48.4718 35.5519 42.928 35.7974 40.9656C35.9939 39.4937 37.4671 37.4823 38.9894 37.1388V37.1879ZM47.9269 42.5846H41.2974V49.2077H47.9269V42.5846Z" fill="white"/>
<path d="M39.3839 60.2954C41.0044 59.952 47.8794 59.952 49.5491 60.2464C51.3169 60.5407 53.2321 62.2579 53.4285 64.0731C53.6741 66.1827 53.6741 71.8737 53.4285 73.9833C53.183 76.0929 51.7098 77.5647 49.5491 77.8591C47.3883 78.1535 41.741 78.1044 39.6294 77.8591C37.5178 77.6138 35.9955 75.6514 35.7991 73.6399C35.6026 71.6284 35.5535 65.9864 35.7991 64.1221C36.0446 62.4541 37.7142 60.6389 39.3348 60.3445L39.3839 60.2954ZM47.9285 65.7411H41.2991V72.3643H47.9285V65.7411Z" fill="white"/>
<path d="M64.7215 133.396C75.6233 134.132 88.5385 132.12 99.1947 133.298C103.32 133.739 103.418 138.4 99.9313 138.792C89.0295 140.068 75.7706 137.811 64.6233 138.792C61.1858 138.547 61.5295 133.788 64.7215 133.347V133.396Z" fill="white"/>
</g>
<defs>
<clipPath id="clip0_1095_497">
<rect width="154" height="188" fill="white"/>
</clipPath>
</defs>
</svg>
